<?xml version="1.0" encoding="UTF-8"?>
<svg version="1.1" xmlns="http://www.w3.org/2000/svg" width="512" height="512">
<path d="M0 0 C0.75664806 -0.00735338 1.51329612 -0.01470675 2.29287291 -0.02228296 C4.80599485 -0.04415465 7.31895091 -0.0520091 9.83215332 -0.05966187 C11.64299533 -0.07220578 13.45383226 -0.08550066 15.2646637 -0.0994873 C21.18881713 -0.14137361 27.11297053 -0.16226373 33.03723145 -0.18222046 C35.08137565 -0.19032084 37.12551934 -0.19855484 39.16966248 -0.20692062 C48.76874243 -0.24496972 58.36779201 -0.27345127 67.96693277 -0.29014456 C79.03499137 -0.30971347 90.10225259 -0.36243636 101.17003012 -0.44314635 C109.73670675 -0.50346913 118.30315458 -0.53308165 126.87003946 -0.53970659 C131.98235976 -0.54440477 137.09382546 -0.56228748 142.20591736 -0.61262894 C147.01292815 -0.65920858 151.81852196 -0.66765258 156.6257 -0.64710617 C158.38653213 -0.64611583 160.14743434 -0.658747 161.90805244 -0.68621826 C175.17293023 -0.88157079 175.17293023 -0.88157079 179.81785583 1.99992752 C181.84907091 3.99428159 183.44681008 5.96206065 185.06848145 8.29434204 C186.20251215 9.61705314 187.34691907 10.93100974 188.50598145 12.23184204 C189.35869629 13.22184204 189.35869629 13.22184204 190.2286377 14.23184204 C193.66865294 18.08816486 197.38495844 21.67262311 201.06848145 25.29434204 C209.63631829 33.71842323 209.63631829 33.71842323 213.38098145 38.10684204 C218.28390918 43.81186164 223.71903092 49.01334883 229.06848145 54.29434204 C234.96819402 60.11855555 240.82752865 65.90489918 246.2130127 72.21621704 C250.43959955 76.94999432 255.0521931 81.33859762 259.56848145 85.79434204 C270.7563556 96.83223512 270.7563556 96.83223512 274.53723145 101.26309204 C279.3748154 106.92533017 284.77249944 112.06613312 290.06848145 117.29434204 C302.9556398 130.01658247 302.9556398 130.01658247 307.03620911 135.13557816 C309.06397491 137.44426093 309.06397491 137.44426093 311.9851532 139.28669357 C316.72635879 142.69331948 320.31925229 146.28384027 321.76321793 152.08588505 C322.81349429 160.09720755 322.64439921 168.17508172 322.51990509 176.23819661 C322.47601376 179.93983898 322.50201187 183.64110803 322.51904297 187.34288025 C322.54150288 194.58235218 322.50046037 201.82011954 322.43789113 209.05930123 C322.36747592 217.50407615 322.36204855 225.94852777 322.35942876 234.39355037 C322.35268546 249.47298892 322.28954638 264.55165584 322.19348145 279.63076782 C322.10052498 294.23272097 322.04379042 308.83418521 322.02941895 323.43643188 C322.02852788 324.3352664 322.02763681 325.23410092 322.02671874 326.16017285 C322.02494821 327.97114892 322.02318011 329.78212499 322.02141446 331.59310107 C322.02053619 332.48664182 322.01965793 333.38018258 322.01875305 334.30080032 C322.01745713 335.63792139 322.01745713 335.63792139 322.01613504 337.002055 C322.00128961 350.95649641 321.95584812 364.91085994 321.90623146 378.86521508 C321.8885592 383.90621125 321.8747778 388.94720022 321.86374295 393.98821506 C321.84592695 401.99038829 321.81453824 409.99227291 321.75664532 417.99426469 C321.73041971 421.64591089 321.70998705 425.29730736 321.70680237 428.94905281 C321.6779439 453.13259526 319.85438645 474.73591419 302.56066895 493.14102173 C289.19124221 506.44669779 272.34710091 512.61235834 253.72972107 512.5684967 C252.6185105 512.57373338 251.50729994 512.57897006 250.36241633 512.58436543 C246.65494478 512.59931532 242.94761187 512.60006949 239.2401123 512.60073853 C236.5751183 512.60836346 233.91013573 512.61674344 231.24514771 512.6259613 C224.0154986 512.648742 216.78587897 512.65672455 209.55619884 512.66178775 C205.0347664 512.66505311 200.5133424 512.67158065 195.99191475 512.67878914 C183.45259725 512.69834668 170.91328755 512.71475562 158.37395382 512.71766567 C157.17197863 512.71794703 157.17197863 512.71794703 155.94572112 512.71823407 C154.32153102 512.7186003 152.69734091 512.718964 151.07315081 512.71932518 C150.26699322 512.71950799 149.46083563 512.7196908 148.63024902 512.71987915 C147.82309767 512.7200597 147.01594632 512.72024025 146.18433584 512.72042627 C133.1170932 512.72396497 120.05001565 512.75097209 106.98283022 512.78837704 C93.53983172 512.82654712 80.09691495 512.84582379 66.65386111 512.84612519 C59.11701206 512.84670783 51.58035997 512.85507448 44.04356194 512.88412285 C37.62380713 512.90875363 31.2043211 512.91584152 24.78453171 512.90087532 C21.51550738 512.89375344 18.24711733 512.89713201 14.97813225 512.91728592 C-8.48288153 513.05303421 -26.82215588 509.71764206 -44.46276855 492.88809204 C-59.19345869 477.41154418 -63.40646023 458.55222865 -63.31919861 437.80500793 C-63.32337952 436.17176665 -63.32886116 434.53852827 -63.33551842 432.90529519 C-63.34989256 428.45047458 -63.3457536 423.99584024 -63.33835161 419.54100978 C-63.3336022 414.72355562 -63.34614544 409.90614073 -63.35636902 405.08869934 C-63.37352802 395.66357758 -63.37440301 386.23852258 -63.36915611 376.81338926 C-63.36510759 369.14887915 -63.36656608 361.48438871 -63.37190437 353.81987953 C-63.3726528 352.72721742 -63.37340122 351.6345553 -63.37417232 350.50878221 C-63.37570387 348.28872185 -63.37724221 346.06866149 -63.37878729 343.84860114 C-63.39250198 323.04883457 -63.387082 302.24910566 -63.37560207 281.44933996 C-63.36567196 262.44288371 -63.3786084 243.43652483 -63.40253627 224.4300836 C-63.42695034 204.88941022 -63.43652939 185.34878216 -63.42988354 165.80809385 C-63.4263963 154.84745375 -63.42859058 143.88688852 -63.44613457 132.92625999 C-63.46088546 123.59528173 -63.46145435 114.26443103 -63.44406366 104.93345519 C-63.43557485 100.17800206 -63.43335203 95.42277654 -63.44871521 90.66733551 C-63.46263585 86.30418821 -63.45770534 81.94146194 -63.43847597 77.57833854 C-63.43473811 76.00981337 -63.43757316 74.44125387 -63.44808763 72.87275948 C-63.57282915 52.81991679 -58.42505393 34.34881437 -44.42370605 19.44766235 C-32.7186813 7.79845175 -16.61462962 -0.0088649 0 0 Z " fill="#0AC963" transform="translate(126.9315185546875,-0.294342041015625)"/>
<path d="M0 0 C1.16213013 -0.0071553 2.32426025 -0.01431061 3.52160645 -0.02168274 C5.43620415 -0.02571609 5.43620415 -0.02571609 7.38948059 -0.02983093 C8.74638543 -0.03609705 10.10328856 -0.04274398 11.46018982 -0.04974365 C15.91813464 -0.07077222 20.37607976 -0.08114622 24.83406067 -0.09111023 C26.3702121 -0.0951585 27.90636335 -0.09927545 29.44251442 -0.10346031 C36.66133169 -0.12251086 43.88013875 -0.13674109 51.09897631 -0.14507228 C59.42351093 -0.1548388 67.74777922 -0.18114339 76.07222003 -0.22157317 C82.51142034 -0.25177006 88.95054447 -0.26654461 95.3898142 -0.26985329 C99.23323436 -0.2722001 103.07636997 -0.28111168 106.91971397 -0.30631447 C110.53871751 -0.3296625 114.15725052 -0.33380179 117.77630997 -0.32355309 C119.72855927 -0.32282474 121.68078502 -0.34186948 123.63293457 -0.36161804 C131.3825874 -0.31586831 137.48291832 0.26410154 143.25593567 5.96357727 C143.61816223 6.53978821 143.98038879 7.11599915 144.35359192 7.70967102 C144.92400208 8.57785461 144.92400208 8.57785461 145.50593567 9.46357727 C147.79486351 13.69760259 147.57753339 17.8431186 147.59309387 22.5148468 C147.59966507 23.36889603 147.60623627 24.22294525 147.61300659 25.10287476 C147.63273501 27.93274525 147.6444031 30.76256261 147.65437317 33.59248352 C147.6584487 34.560397 147.66252422 35.52831047 147.66672325 36.52555466 C147.68758514 41.65170325 147.7018846 46.77782509 147.71125793 51.90400696 C147.7223039 57.18651152 147.75668261 62.46859271 147.79642963 67.75094795 C147.82264127 71.82260392 147.83095397 75.89415988 147.83453941 79.96589279 C147.83939604 81.9122439 147.85098355 83.85859081 147.86957741 85.80485916 C147.89405872 88.53795094 147.8929872 91.26995904 147.88606262 94.00312805 C147.90527771 95.19584572 147.90527771 95.19584572 147.92488098 96.41265869 C147.87088611 102.29825646 146.39491648 107.0538141 143.41609192 112.14717102 C138.85883943 116.5904922 135.0075997 118.39240127 128.67396545 118.42132568 C126.91608704 118.43628838 126.91608704 118.43628838 125.12269592 118.45155334 C123.84054199 118.45221802 122.55838806 118.45288269 121.23738098 118.4535675 C119.87047371 118.46119095 118.50357073 118.46961877 117.13667297 118.47879028 C113.42573894 118.50072727 109.71488731 118.50953338 106.00389576 118.51461673 C103.68345732 118.51826204 101.3630404 118.52450308 99.04261017 118.53161812 C90.94150852 118.55611235 82.84047088 118.56916391 74.73933411 118.57270813 C67.19797014 118.57634074 59.65701383 118.60621616 52.11577439 118.64811271 C45.63407957 118.68285526 39.15251953 118.69825727 32.67073226 118.69895416 C28.80268448 118.69974581 24.93505178 118.70843137 21.06710052 118.73695183 C17.42582586 118.76320018 13.78530833 118.7653009 10.14398193 118.74929619 C8.17980681 118.74662785 6.21564599 118.7686206 4.25160217 118.79148865 C-2.88894512 118.73256552 -8.30986155 118.28582435 -13.58390808 113.14717102 C-18.30106528 107.77345056 -19.31733296 102.91575484 -19.23088074 95.92060852 C-19.23964233 95.03496216 -19.24840393 94.1493158 -19.25743103 93.23683167 C-19.27930096 90.33143512 -19.26491663 87.42758097 -19.24797058 84.52217102 C-19.25134228 82.49010427 -19.25619785 80.45803949 -19.26246643 78.42597961 C-19.26982096 74.17594624 -19.25917788 69.92643981 -19.23576355 65.6764679 C-19.20727691 60.24243725 -19.22368847 54.80964152 -19.25362587 49.37565613 C-19.27173712 45.1821521 -19.26592323 40.98893843 -19.25298691 36.79542542 C-19.24966348 34.79245353 -19.25370236 32.78945485 -19.26538467 30.78651428 C-19.2781565 27.9815489 -19.25862849 25.17855307 -19.23088074 22.37373352 C-19.24100189 21.55479614 -19.25112305 20.73585876 -19.2615509 19.8921051 C-19.15153135 13.85596084 -17.34262266 9.8582366 -13.58390808 5.14717102 C-9.14411575 1.02450671 -5.96976052 0.02521219 0 0 Z " fill="#FCFEFD" transform="translate(191.5839080810547,255.8528289794922)"/>
<path d="M0 0 C3.48625821 1.74312911 4.87018803 2.6579149 7.36328125 5.38671875 C7.99564697 6.07064697 8.6280127 6.7545752 9.27954102 7.45922852 C9.95041748 8.19455811 10.62129395 8.9298877 11.3125 9.6875 C17.35431782 16.21895058 23.50498818 22.60018103 29.86254883 28.82495117 C32.76420598 31.6849636 35.53786186 34.58426219 38.18359375 37.68359375 C43.13963075 43.42430783 48.60656576 48.67558595 54 54 C59.89971257 59.82421351 65.75904721 65.61055714 71.14453125 71.921875 C75.3711181 76.65565228 79.98371166 81.04425558 84.5 85.5 C95.68787416 96.53789308 95.68787416 96.53789308 99.46875 100.96875 C104.30633396 106.63098813 109.704018 111.77179108 115 117 C127.05025513 128.89604711 127.05025513 128.89604711 132.45751953 135.23486328 C134.97349061 138.11401348 137.70111326 140.76978043 140.4375 143.4375 C142.31622789 145.27144296 144.16733147 147.11918255 146 149 C146 149.33 146 149.66 146 150 C97.82 150 49.64 150 0 150 C0 100.5 0 51 0 0 Z " fill="#55D993" transform="translate(302,0)"/>
<path d="M0 0 C7.74834607 6.56078709 15.16680363 13.43294834 22.48168945 20.47241211 C24.11571357 22.02943778 25.76556429 23.57002518 27.4309082 25.09350586 C42.77691247 39.16206716 42.77691247 39.16206716 43.30677795 48.12687683 C43.18312281 53.41214388 42.8885362 58.05432739 39 62 C36.51527405 62.50057125 36.51527405 62.50057125 33.49633789 62.50120544 C32.35222443 62.51103958 31.20811096 62.52087372 30.02932739 62.53100586 C28.14502518 62.51650391 28.14502518 62.51650391 26.22265625 62.50170898 C24.88719106 62.50549173 23.5517298 62.51099141 22.21627808 62.51808167 C18.58810443 62.53205976 14.96040376 62.52085048 11.33225632 62.50437045 C7.53798792 62.49053459 3.7437474 62.49697835 -0.05053711 62.50050354 C-6.42276648 62.50320684 -12.79480761 62.48971995 -19.16699219 62.46655273 C-26.53737257 62.43994212 -33.90743819 62.43819538 -41.27785015 62.4499411 C-48.36375143 62.46071504 -55.44953869 62.45453487 -62.53543091 62.44038582 C-65.55293468 62.43462264 -68.5703551 62.43471127 -71.58786011 62.43945122 C-75.14036399 62.44421865 -78.6925226 62.43412955 -82.24496078 62.41249657 C-84.17306619 62.40426446 -86.10121679 62.41078463 -88.02932739 62.41769409 C-89.17344086 62.40778946 -90.31755432 62.39788483 -91.49633789 62.38768005 C-92.49258682 62.38525016 -93.48883575 62.38282026 -94.51527405 62.38031673 C-97 62 -97 62 -98.81401062 60.6846323 C-100.86202742 57.77553774 -100.44986548 55.43217124 -100 52 C-98.04394531 49.16992188 -98.04394531 49.16992188 -95.328125 46.46875 C-94.60988556 45.74757996 -94.60988556 45.74757996 -93.87713623 45.01184082 C-92.86657842 44.00526595 -91.84741707 43.00726305 -90.8203125 42.01757812 C-89.24722239 40.49731567 -87.70888684 38.94726662 -86.171875 37.390625 C-78.70264966 30.01069015 -78.70264966 30.01069015 -75.92993164 29.96850586 C-73.42047774 31.30973834 -71.84514864 32.93931712 -69.91796875 35.03515625 C-69.15033203 35.84404297 -68.38269531 36.65292969 -67.59179688 37.48632812 C-65.9924209 39.20003805 -64.4012025 40.92139876 -62.81835938 42.65039062 C-62.04685547 43.45798828 -61.27535156 44.26558594 -60.48046875 45.09765625 C-59.78848389 45.84539307 -59.09649902 46.59312988 -58.38354492 47.36352539 C-55.05413777 49.64940229 -52.98006222 49.41446473 -49 49 C-46.17353681 47.18040797 -46.17353681 47.18040797 -43.70727539 44.50195312 C-43.22832825 44.02402817 -42.7493811 43.54610321 -42.25592041 43.05369568 C-40.68598618 41.47890677 -39.14226971 39.88084869 -37.59765625 38.28125 C-36.51060639 37.18113643 -35.42199466 36.08256418 -34.33189392 34.98547363 C-31.47375315 32.10066861 -28.6372598 29.19546517 -25.80480957 26.28546143 C-22.90807883 23.31698723 -19.99130697 20.36835136 -17.07617188 17.41796875 C-11.36434395 11.63117808 -5.6752387 5.8226779 0 0 Z " fill="#0BC963" transform="translate(285,300)"/>
<path d="M0 0 C4.47331031 2.48811343 8.54879331 5.0428854 10.77734375 9.78515625 C12.29059931 15.61279999 12.06350541 21.57033574 10.265625 27.28125 C7.07976105 31.59758181 3.46950282 35.19245739 -1.671875 36.90625 C-7.18343833 37.39139482 -12.04858562 37.67362316 -17.109375 35.28125 C-21.43960536 31.26786576 -26.02756393 26.89198824 -27.0078125 20.828125 C-27.11180948 15.04589286 -26.21530586 10.57847462 -22.671875 5.90625 C-16.08795127 -0.18752246 -8.79082574 -3.59858363 0 0 Z " fill="#0DC965" transform="translate(233.671875,279.09375)"/>
</svg>
